<?xml version="1.0" encoding="UTF-8"?>
<svg version="1.1" xmlns="http://www.w3.org/2000/svg" width="1615" height="375">
<path d="M0 0 C4.3990582 3.61700341 6.65732089 6.67033475 7.484375 12.29296875 C9.82543827 46.61708753 -4.78538216 76.73739569 -23 105 C-23.49773926 105.77649902 -23.99547852 106.55299805 -24.50830078 107.35302734 C-31.95822816 118.92100503 -39.79821273 129.86788982 -48.66210938 140.39013672 C-50.40162185 142.48326541 -52.04798253 144.64052242 -53.6875 146.8125 C-57.15515955 151.34578793 -61.04943266 155.46933796 -64.9609375 159.6171875 C-68.61240954 163.88423337 -68.2475335 168.329929 -68.3125 173.6875 C-68.35600586 174.85442383 -68.35600586 174.85442383 -68.40039062 176.04492188 C-68.46349365 181.8649624 -67.19807611 186.11554497 -64 191 C-62.04286944 193.35843975 -62.04286944 193.35843975 -58.4375 193.5 C-50.59203745 193.28680808 -44.83313343 187.1279151 -39.71875 181.7578125 C-38.03288688 180.03363431 -36.28029511 178.49138232 -34.4375 176.9375 C-29.7390247 172.90104079 -25.43091551 168.48433214 -21.09936523 164.06225586 C-17.56103696 160.47206203 -14.03624613 157.03004313 -10 154 C-9.01 154 -8.02 154 -7 154 C-6.77361424 158.22840284 -6.57205028 162.45763658 -6.375 166.6875 C-6.31054688 167.88568359 -6.24609375 169.08386719 -6.1796875 170.31835938 C-6.128125 171.47529297 -6.0765625 172.63222656 -6.0234375 173.82421875 C-5.97106934 174.88729248 -5.91870117 175.95036621 -5.86474609 177.0456543 C-6.08848292 181.93272894 -7.8385017 185.13576394 -10.94140625 188.8203125 C-11.81019409 189.86251953 -11.81019409 189.86251953 -12.6965332 190.92578125 C-13.31230225 191.65152344 -13.92807129 192.37726563 -14.5625 193.125 C-15.83882856 194.64819715 -17.11487036 196.17163463 -18.390625 197.6953125 C-19.01130859 198.43297852 -19.63199219 199.17064453 -20.27148438 199.93066406 C-21.73791306 201.68623602 -23.18244825 203.45452084 -24.609375 205.2421875 C-36.83673242 220.54806399 -53.79309059 237.01458738 -74.25 239.375 C-84.75981497 238.3240185 -92.2196518 233.80761452 -98.8359375 225.76953125 C-104.77226577 217.4094183 -107.2429042 207.7457782 -110 198 C-116.28090954 204.9451172 -116.28090954 204.9451172 -122.4375 212 C-130.78637458 221.47349468 -139.15935639 228.6361648 -150 235 C-150.75410156 235.45503906 -151.50820313 235.91007813 -152.28515625 236.37890625 C-159.37113394 240.3220273 -166.89091431 241.8446334 -174.8125 239.875 C-184.04137086 236.84228323 -190.45764008 230.82292937 -195.48046875 222.56640625 C-199.46890337 214.50363226 -201.16460721 205.74631315 -203 197 C-206.71395181 197 -207.35577074 197.88771841 -210.125 200.25 C-217.14727614 205.82055559 -222.51941783 207.95280074 -231.5 208.625 C-237.19906743 209.27146138 -239.93777767 210.11507881 -243.6875 214.5 C-244.72003906 215.83804688 -244.72003906 215.83804688 -245.7734375 217.203125 C-253.77612222 227.25562019 -266.24495 235.6379537 -279 238 C-288.73984928 239.09551908 -297.93181652 236.60690252 -305.8125 230.75 C-315.3134058 222.6382158 -321.51214594 213.08467745 -325 201 C-325 199.68 -325 198.36 -325 197 C-330.32771527 201.47723426 -335.25804669 206.22805479 -340.10351562 211.22045898 C-366.89029916 238.75679523 -366.89029916 238.75679523 -383.8125 239.5 C-391.16017643 238.99691585 -397.1990103 235.45410763 -402 230 C-409.17987703 218.86077126 -410.73395597 206.1885507 -408 193.3125 C-403.83150815 178.49119563 -395.58418823 165.60802647 -387 153 C-394.425 153.99 -394.425 153.99 -402 155 C-402.99 157.97 -402.99 157.97 -404 161 C-405.42337923 163.27573548 -406.85077473 165.40976423 -408.4375 167.5625 C-408.8806958 168.16964844 -409.3238916 168.77679688 -409.78051758 169.40234375 C-416.79792203 178.89843484 -424.32034761 187.59893782 -432.875 195.75 C-433.50559326 196.35908203 -434.13618652 196.96816406 -434.78588867 197.59570312 C-438.76721766 201.29413005 -441.4358906 203 -447 203 C-448.80753252 204.56114938 -448.80753252 204.56114938 -450.74609375 206.62109375 C-451.49528076 207.38736084 -452.24446777 208.15362793 -453.01635742 208.94311523 C-453.81533447 209.76626221 -454.61431152 210.58940918 -455.4375 211.4375 C-462.01077283 218.10130487 -468.51154339 224.36774722 -476 230 C-477.16938472 230.91000992 -478.33864736 231.82017673 -479.5078125 232.73046875 C-492.09395165 242.39476723 -505.58675251 251.45972464 -522.23046875 249.6484375 C-534.5559351 247.05524686 -544.30675581 238.99352813 -551.125 228.5625 C-560.25747019 212.36858428 -564.9188913 192.20411679 -560.875 173.875 C-554.61088041 151.96514917 -535.92165862 134.42120734 -519 120 C-518.12601563 119.236875 -517.25203125 118.47375 -516.3515625 117.6875 C-502.83146525 106.08848895 -486.06919562 92.29794374 -467.421875 92.75 C-461.37141008 93.37456412 -455.97441114 96.42999987 -452 101 C-447.67872332 107.51536143 -446.91068047 114.35548331 -448 122 C-449.22575269 126.2534183 -450.9898529 130.06325715 -453 134 C-453.55816406 135.12535156 -454.11632812 136.25070313 -454.69140625 137.41015625 C-460.25381206 147.89627827 -469.26041499 161.92901488 -481 166 C-485.69224284 166.85601727 -488.85039161 166.6706049 -493 164.25 C-495.030207 161.96601713 -495.41684026 160.89150037 -496 158 C-513.49708941 169.60800594 -513.49708941 169.60800594 -526 186 C-525.96126518 191.47129341 -525.65049393 196.69763215 -522 201 C-517.48023236 204.95479669 -511.77218255 205.09965255 -506 205 C-482.17531739 201.95473982 -459.78650113 181.71803202 -442.296875 166.70703125 C-439.94019081 164.95554997 -437.7647862 163.95591012 -435 163 C-435 159.25937017 -436.39251975 158.31749145 -438.75390625 155.6015625 C-442.14646138 151.24122518 -442.51512508 146.32295915 -442 141 C-438.61322756 126.61693476 -430.53360662 114.98242864 -421 104 C-420.48824219 103.33226562 -419.97648438 102.66453125 -419.44921875 101.9765625 C-414.54991672 95.65577284 -406.90413225 90.54646066 -399 89 C-394.82258685 88.86945584 -391.81616573 89.32666327 -388.5 92.0625 C-386.50093133 95.97734281 -386.89267163 98.63084096 -387 103 C-386.38181396 102.88406494 -385.76362793 102.76812988 -385.12670898 102.64868164 C-351.6507523 96.43194017 -351.6507523 96.43194017 -342 100 C-336.3479454 104.36464217 -333.49796289 110.1538415 -332 117 C-331.835 117.74378906 -331.67 118.48757812 -331.5 119.25390625 C-330.39390565 125.87895053 -331.71722864 131.28046839 -335.22265625 136.9921875 C-338.0008893 140.84611524 -341.17138682 144.31061939 -344.375 147.8125 C-351.32347069 155.48138069 -356.96746009 163.56379286 -361.9375 172.625 C-362.32744141 173.31730713 -362.71738281 174.00961426 -363.11914062 174.72290039 C-365.84334465 179.8599188 -366.64091827 184.19769526 -367 190 C-352.15956087 189.45035411 -338.86756776 175.81185094 -328.453125 166.14453125 C-327 165 -327 165 -325 165 C-324.79697266 164.14341797 -324.79697266 164.14341797 -324.58984375 163.26953125 C-317.55774751 136.78337238 -293.6619878 114.09237502 -271 100.1875 C-258.77020317 93.26103163 -244.44651925 89.77038659 -230.453125 92.49609375 C-225.40687328 94.22707544 -220.69055076 97.26291781 -217.8515625 101.859375 C-216.88030013 104.30089691 -216.79948878 106.19371886 -216.75 108.8125 C-216.36286173 113.79416608 -214.81940624 115.86318249 -211.43359375 119.37890625 C-207.18777282 124.18003891 -207.57627723 131.1571092 -207.6875 137.21875 C-208.77974819 150.43495305 -213.0140843 162.80112626 -218 175 C-216.26669818 173.7766714 -214.53854767 172.54604266 -212.8125 171.3125 C-211.84957031 170.62800781 -210.88664062 169.94351563 -209.89453125 169.23828125 C-203.2884822 164.12995992 -201.26249898 160.82333745 -199.75 152.8125 C-188.69080911 101.50888633 -156.58624534 34.67843445 -110.9375 4.8125 C-105.57161113 1.49613861 -101.35694132 0.45198782 -95 1 C-91.7427311 2.44071509 -89.67230901 3.604846 -88.09057617 6.88720703 C-86.20094833 12.49898123 -85.4883138 17.52733275 -85.5625 23.4375 C-85.57385986 24.7356665 -85.57385986 24.7356665 -85.58544922 26.06005859 C-85.80981511 35.04288286 -87.53318312 43.3889818 -90 52 C-90.20367188 52.72896484 -90.40734375 53.45792969 -90.6171875 54.20898438 C-96.88071064 76.11198352 -108.71498423 95.01241882 -121 114 C-121.43650879 114.6815918 -121.87301758 115.36318359 -122.32275391 116.06542969 C-126.18129048 122.08826809 -130.27853526 127.78781099 -134.81640625 133.31640625 C-136.41837848 135.2851986 -137.98350257 137.2640168 -139.52734375 139.27734375 C-140.43431521 140.45617612 -141.34188078 141.63455159 -142.25 142.8125 C-142.93400879 143.70014038 -142.93400879 143.70014038 -143.63183594 144.60571289 C-146.55167302 148.33128356 -149.64133121 151.77145673 -152.94946289 155.1550293 C-160.03737754 162.37931434 -160.03737754 162.37931434 -162 172 C-161.98453125 173.546875 -161.98453125 173.546875 -161.96875 175.125 C-161.65481113 181.90607959 -160.46104379 187.68688767 -158 194 C-152.15109066 195.12873689 -148.16751033 195.28558001 -143 192 C-134.8481289 186.25885317 -127.96314932 179.1307973 -121.01416016 172.02880859 C-120.32241699 171.32320801 -119.63067383 170.61760742 -118.91796875 169.890625 C-118.25289307 169.2090332 -117.58781738 168.52744141 -116.90258789 167.82519531 C-115.21820593 166.20932985 -113.53119151 164.90729354 -111.6328125 163.5625 C-107.95310846 159.98106699 -107.56620628 156.68494719 -106.6875 151.75 C-104.03509893 139.02790364 -99.68324502 127.09956919 -95 115 C-94.67660645 114.15727539 -94.35321289 113.31455078 -94.02001953 112.44628906 C-85.47588759 90.43689465 -73.97903368 70.03514251 -60.72216797 50.54638672 C-59.15285804 48.22601494 -57.61897155 45.88715124 -56.09765625 43.53515625 C-49.68492987 33.7295083 -42.29670338 25.25894819 -34 17 C-33.46697266 16.46439453 -32.93394531 15.92878906 -32.38476562 15.37695312 C-23.67197494 6.70789038 -13.10063652 -3.2177002 0 0 Z M-29 58 C-28 60 -28 60 -28 60 Z M-123 60 C-122 62 -122 62 -122 62 Z M-30 60 C-35.22171902 66.98668009 -39.48596625 74.25350135 -43.45458984 82.01538086 C-44.38537003 83.83274768 -45.33057612 85.64209121 -46.27734375 87.45117188 C-49.97895086 94.42892938 -49.97895086 94.42892938 -52 102 C-47.8596927 98.39174154 -45.43617452 94.02461562 -42.75 89.3125 C-42.27272461 88.48049072 -41.79544922 87.64848145 -41.30371094 86.79125977 C-38.08443302 81.10153597 -35.0658808 75.33716671 -32.25 69.4375 C-31.90291992 68.71796143 -31.55583984 67.99842285 -31.19824219 67.25708008 C-30.39913113 65.5339707 -29.68996822 63.76964072 -29 62 C-29.33 61.34 -29.66 60.68 -30 60 Z M-124 62 C-128.60265795 68.57610527 -132.49551185 75.37806595 -136.1875 82.5 C-136.70763672 83.48097656 -137.22777344 84.46195313 -137.76367188 85.47265625 C-140.75716709 91.21496763 -143.13524351 96.79696123 -145 103 C-141.57430073 99.86683236 -139.16341021 96.40301744 -136.8125 92.4375 C-136.24136475 91.4779541 -136.24136475 91.4779541 -135.65869141 90.49902344 C-132.47885912 85.03933594 -129.62075406 79.43883711 -126.875 73.75 C-126.4725708 72.92814209 -126.0701416 72.10628418 -125.65551758 71.25952148 C-125.29224365 70.48809814 -124.92896973 69.7166748 -124.5546875 68.921875 C-124.22968262 68.23706055 -123.90467773 67.55224609 -123.56982422 66.84667969 C-122.74274411 64.80195438 -122.74274411 64.80195438 -124 62 Z M-53 102 C-52 104 -52 104 -52 104 Z M-281.6953125 163.19921875 C-286.70372209 169.28570973 -288.66894786 175.47982938 -289.8125 183.1875 C-289.94591797 183.96802734 -290.07933594 184.74855469 -290.21679688 185.55273438 C-291.1395751 191.32792047 -291.1395751 191.32792047 -290 197 C-285.97230843 199.68512771 -282.64819363 199.79837969 -278 199 C-272.68799813 196.85413555 -267.76307497 194.17538332 -263 191 C-262.72615122 189.01230036 -262.72615122 189.01230036 -263.03125 186.73828125 C-263.10182617 185.87380371 -263.17240234 185.00932617 -263.24511719 184.11865234 C-263.32922852 183.19262207 -263.41333984 182.2665918 -263.5 181.3125 C-264.15552706 171.91927683 -263.47389228 164.13519531 -261 155 C-260.71253906 153.89011719 -260.42507813 152.78023437 -260.12890625 151.63671875 C-259.45012819 149.08074587 -258.74388041 146.53763458 -258 144 C-264.83880434 144 -276.87570546 158.48948117 -281.6953125 163.19921875 Z " fill="#020202" transform="translate(817,45)"/>
<path d="M0 0 C0.87522681 2.86191929 1.09425844 3.74220884 0.02734375 6.66015625 C-2.73493387 9.84821847 -5.45270442 9.98668921 -9.4375 10.4375 C-20.80661253 12.13964799 -30.67406401 16.64476078 -38.203125 25.62890625 C-44.36503988 34.46020029 -49.05371265 43.78750233 -53.75146484 53.4609375 C-55.68149281 57.38590637 -57.70651417 61.25815994 -59.75 65.125 C-60.15283203 65.88925293 -60.55566406 66.65350586 -60.97070312 67.44091797 C-63.40090022 72.03264244 -65.86839388 76.60290345 -68.35546875 81.1640625 C-74.45915941 92.3753 -80.34138324 103.60950886 -85.74584961 115.17480469 C-89.40332585 122.92692689 -93.40953168 130.47062767 -97.5 138 C-102.66678888 147.51197893 -107.54648132 157.11215484 -112.15063477 166.91015625 C-116.07111872 175.23177972 -120.31596029 183.35256483 -124.64941406 191.46484375 C-127.22472526 196.29890584 -129.76980784 201.14872345 -132.3125 206 C-132.80419678 206.93134766 -133.29589355 207.86269531 -133.80249023 208.82226562 C-140.88112604 220.86541959 -140.88112604 220.86541959 -143.3125 234.1875 C-143.26738281 235.10917969 -143.22226563 236.03085938 -143.17578125 236.98046875 C-143.11777344 237.64691406 -143.05976562 238.31335938 -143 239 C-135.09461774 242.3981769 -126.4995698 243.16397674 -118 244 C-118.4979837 247.73487777 -118.87491756 249.81237635 -121 253 C-123.58300781 253.41650391 -123.58300781 253.41650391 -126.953125 253.4765625 C-128.24726318 253.50693604 -129.54140137 253.53730957 -130.87475586 253.56860352 C-132.33316647 253.58771803 -133.79158141 253.60650466 -135.25 253.625 C-136.78721552 253.65492253 -138.32440645 253.68613077 -139.86157227 253.71850586 C-143.30686833 253.78830317 -146.7521809 253.84844676 -150.19775391 253.90283203 C-155.36210429 253.986008 -160.52575649 254.09244148 -165.68955994 254.20419312 C-170.27204569 254.30323168 -174.85462231 254.39752865 -179.43722534 254.4909668 C-181.77311757 254.53870415 -184.10899425 254.58720832 -186.44485474 254.63647461 C-197.99500992 254.87584562 -209.52707022 255.07371752 -221.078125 254.81640625 C-221.91416763 254.80128494 -222.75021027 254.78616364 -223.61158752 254.77058411 C-227.40395408 254.70198796 -231.18901544 254.6042256 -234.97827148 254.43579102 C-244.50521488 254.23371321 -249.43399864 256.42106911 -257 262 C-259.26920665 263.17546857 -261.45998311 264.00173953 -263.875 264.875 C-265.44894531 265.45894531 -265.44894531 265.45894531 -267.0546875 266.0546875 C-278.00880268 269.57046452 -288.77364633 268.7459289 -299.1875 264.00390625 C-306.49404225 260.00468142 -310.40096343 253.62585271 -312.875 245.8125 C-319.60616896 216.6306657 -303.28146545 188.66320226 -290 164 C-290.33 164 -290.66 164 -291 164 C-292.8251748 165.8923217 -294.60705527 167.80517879 -296.375 169.75 C-296.91084717 170.33475098 -297.44669434 170.91950195 -297.9987793 171.52197266 C-300.18056806 173.90414614 -302.35557249 176.29246588 -304.53076172 178.68066406 C-305.9571063 180.24626854 -307.38436967 181.81102435 -308.8125 183.375 C-309.49723389 184.12523437 -309.49723389 184.12523437 -310.19580078 184.890625 C-313.14019906 188.10230551 -316.16826355 191.20177364 -319.28123474 194.24879456 C-321.02134086 196.02174365 -322.63825278 197.85939402 -324.25415039 199.74584961 C-327.74888633 203.76157065 -331.41425284 207.55943443 -335.18359375 211.31640625 C-335.84279312 211.97656235 -336.50199249 212.63671844 -337.1811676 213.31687927 C-338.56396835 214.70035506 -339.94801076 216.08259083 -341.33325195 217.46362305 C-343.43230343 219.55731669 -345.5259594 221.65629874 -347.61914062 223.75585938 C-348.97363786 225.10969571 -350.32844531 226.46322175 -351.68359375 227.81640625 C-352.29843124 228.43326797 -352.91326874 229.0501297 -353.54673767 229.6856842 C-357.30665207 233.42576105 -361.18405857 236.97240724 -365.21234131 240.42222595 C-367.39895795 242.35211727 -369.40434271 244.41494447 -371.41162109 246.52783203 C-379.02597488 254.52967123 -387.67116302 262.09101525 -399.078125 263.3359375 C-408.18361158 263.44807403 -414.68333551 261.90544725 -422.25 256.8125 C-431.65203189 247.19678557 -435.33731414 236.22482797 -435.3828125 222.97485352 C-434.79397185 193.70149911 -411.19391165 163.45378576 -393.58886719 141.94921875 C-391.11815617 138.91815594 -388.71898216 135.83209188 -386.3125 132.75 C-385.42763139 131.62456887 -384.54222047 130.49956392 -383.65625 129.375 C-381.82050561 127.04355015 -379.98738527 124.71007168 -378.15625 122.375 C-371.89026867 114.38598102 -365.59482513 106.42261851 -359.19140625 98.54296875 C-352.4690461 90.24199545 -346.10457305 81.76519449 -340 73 C-347.73791243 75.78700955 -354.63957765 79.47427764 -361.6875 83.6875 C-362.73824707 84.30890869 -363.78899414 84.93031738 -364.87158203 85.57055664 C-366.96267819 86.80880288 -369.05192838 88.05017274 -371.13916016 89.29492188 C-373.60202394 90.76280383 -376.07046736 92.22031746 -378.54296875 93.671875 C-383.76723283 96.7525538 -388.90499692 99.86238814 -393.8125 103.4375 C-409.51858088 114.67098831 -434.85726761 130.99047392 -455 128 C-459.41505785 126.65518353 -462.12229567 124.37607826 -464.5 120.4375 C-468.06207672 111.99692689 -464.84323972 103.43785191 -461.71069336 95.33276367 C-456.38374522 82.26478228 -449.36439687 70.33728492 -441 59 C-440.46117187 58.22269531 -439.92234375 57.44539063 -439.3671875 56.64453125 C-438.91601562 56.10183594 -438.46484375 55.55914062 -438 55 C-437.34 55 -436.68 55 -436 55 C-436 54.34 -436 53.68 -436 53 C-424.89079027 42.46962685 -411.88554538 34.42345659 -398.09033203 27.97949219 C-396.03887867 27.01821785 -394.00234912 26.02948228 -391.96484375 25.0390625 C-366.86852473 13.10783203 -325.60994086 -3.56170875 -297.5859375 6.35546875 C-290.99204029 9.37946736 -286.69035074 13.12465922 -284 20 C-279.06352861 35.67851126 -284.63991512 55.51485281 -291.88671875 69.5078125 C-298.46374595 81.46808372 -306.31794359 92.73230739 -314 104 C-314.58749023 104.86463867 -315.17498047 105.72927734 -315.78027344 106.62011719 C-321.51861165 115.02409901 -327.60653519 123.12462651 -333.8125 131.1875 C-360.33831858 164.55335344 -360.33831858 164.55335344 -380 202 C-374.92440744 200.69721437 -371.7977347 198.40811691 -368.125 194.8125 C-367.06575407 193.80790804 -366.00585859 192.80400053 -364.9453125 191.80078125 C-364.43774414 191.31561035 -363.93017578 190.83043945 -363.40722656 190.33056641 C-361.64863776 188.66777859 -359.83499116 187.07778529 -358 185.5 C-341.62938686 171.27635252 -324.88423964 156.49286376 -310.77734375 139.99609375 C-308.76731223 137.73867374 -306.65167047 135.62264287 -304.5 133.5 C-301.15408634 130.1935163 -298.00772434 126.79853464 -294.9453125 123.23046875 C-292.51275647 120.44133323 -290.0079174 117.72110519 -287.5 115 C-281.40964455 108.37332197 -275.43915819 101.84482811 -270.26171875 94.46875 C-269.84535156 93.9840625 -269.42898438 93.499375 -269 93 C-268.34 93 -267.68 93 -267 93 C-266.63068359 92.15115234 -266.63068359 92.15115234 -266.25390625 91.28515625 C-264.78463776 88.60751742 -263.02247565 86.66956388 -260.9375 84.4375 C-256.07068854 79.12683534 -251.52276301 73.60412171 -247 68 C-241.15321605 60.77938157 -235.19361981 53.67088832 -229.125 46.63671875 C-227.00261003 44.17503968 -224.90076204 41.69771878 -222.8125 39.20703125 C-222.28889893 38.58610596 -221.76529785 37.96518066 -221.22583008 37.32543945 C-220.23687155 36.15190463 -219.25197855 34.97492506 -218.2722168 33.79370117 C-213.63355635 28.3114993 -208.06437718 21.79392051 -200.6328125 20.62890625 C-196.10506631 20.50901266 -193.60386816 20.6421522 -189.625 23 C-183.13014245 30.42269435 -180.61498753 39.14750546 -180.375 48.875 C-180.31699219 49.62007812 -180.25898437 50.36515625 -180.19921875 51.1328125 C-179.90829803 64.64943679 -190.57514655 77.9207932 -197.83630371 88.68414307 C-200.16896459 92.14267266 -202.47124733 95.62138275 -204.77734375 99.09765625 C-205.23106354 99.77999329 -205.68478333 100.46233032 -206.1522522 101.16534424 C-211.04119225 108.53367453 -215.67600887 116.05071205 -220.2890625 123.59375 C-222.31879661 126.9117758 -224.39891986 130.1897453 -226.52709961 133.4453125 C-254.14664753 173.95645622 -254.14664753 173.95645622 -265 220 C-263.84076337 221.86272477 -263.84076337 221.86272477 -262 223 C-255.85151485 223.02858011 -250.41815488 219.91891758 -245.4375 216.625 C-244.42103394 215.97168701 -244.42103394 215.97168701 -243.3840332 215.30517578 C-236.27038582 210.66003045 -229.5251551 205.53094384 -222.78955078 200.36035156 C-220.26798437 198.44354828 -217.69863154 196.59606482 -215.125 194.75 C-210.59488984 191.49954331 -206.32301129 188.00304054 -202.09375 184.37109375 C-201.4028125 183.91863281 -200.711875 183.46617187 -200 183 C-199.01 183.33 -198.02 183.66 -197 184 C-196.26812624 209.38052723 -196.26812624 209.38052723 -200.08203125 214.7734375 C-202.59222874 217.15944231 -205.12781647 219.07497928 -208 221 C-209.71438965 222.81950301 -209.71438965 222.81950301 -211.125 224.6875 C-213.74696787 227.82946708 -216.65676227 230.44458491 -219.76953125 233.09375 C-222.36492343 235.31187852 -224.90182202 237.58891087 -227.4375 239.875 C-228.28183594 240.63554687 -229.12617187 241.39609375 -229.99609375 242.1796875 C-231.01273297 243.10318433 -232.02881472 244.02881472 -233 245 C-222.18033291 243.61163564 -212.0772758 239.68503001 -205.1015625 231.015625 C-192.08302203 212.33474536 -182.19808647 191.56599157 -172.11401367 171.21166992 C-165.0293739 156.95873548 -157.6073983 142.85989529 -150.125 128.8125 C-147.49203683 123.86699029 -144.92459883 118.89580996 -142.4375 113.875 C-138.40006644 105.72589585 -134.23312039 97.64394805 -130.0625 89.5625 C-129.70900482 88.8769101 -129.35550964 88.19132019 -128.99130249 87.48495483 C-125.47139522 80.66053385 -121.94114133 73.84450363 -118.28125 67.09375 C-114.10703623 59.37777909 -110.29541429 51.50075824 -106.5625 43.5625 C-106.04139648 42.47155029 -105.52029297 41.38060059 -104.98339844 40.2565918 C-101.31480664 32.34611506 -97.87851869 24.76087847 -100 16 C-107.67202093 13.87111461 -115.04601192 12.45406625 -123 12 C-123.75 10.375 -123.75 10.375 -124 8 C-122.67192078 4.90560913 -122.67192078 4.90560913 -120 2 C-116.52222072 1.05381088 -113.08681703 1.12505301 -109.49926758 1.13525391 C-108.43049377 1.11487061 -107.36171997 1.0944873 -106.26055908 1.07348633 C-102.72167209 1.01302938 -99.18386782 0.9946575 -95.64453125 0.9765625 C-93.18312496 0.94286234 -90.72175303 0.90656095 -88.26042175 0.86776733 C-81.77190975 0.77258628 -75.28353654 0.71311467 -68.79455566 0.66088867 C-62.21366191 0.60157771 -55.63326307 0.50824368 -49.05273438 0.41796875 C-39.41786737 0.29021463 -29.7830187 0.17663087 -20.14770508 0.08837891 C-18.64876961 0.07446609 -18.64876961 0.07446609 -17.11955261 0.06027222 C-11.41279288 0.0107784 -5.70697214 -0.00828853 0 0 Z " fill="#020202" transform="translate(1596,8)"/>
<path d="M0 0 C0.86133545 0.10916748 1.7226709 0.21833496 2.61010742 0.33081055 C10.99258861 1.58542668 19.27312928 4.3859943 25.9375 9.75 C31.44683155 17.349078 30.5878938 26.53942258 29.1875 35.4375 C28.1751083 40.38697053 26.59541251 44.46389605 23.9375 48.75 C23.32261719 49.76900391 23.32261719 49.76900391 22.6953125 50.80859375 C16.7145266 59.74598285 6.74592074 63.4716815 -2.875 67.4375 C-15.21002518 72.65430127 -27.55033512 78.37265998 -38.89453125 85.5390625 C-42.52616878 87.56754472 -44.94526166 87.20747093 -49.0625 86.75 C-51.625 85.3125 -51.625 85.3125 -53.0625 82.75 C-53.74173135 78.30329877 -52.80819826 74.94780035 -50.4453125 71.15234375 C-46.48063343 66.03837056 -42.12695546 61.75936058 -37.0625 57.75 C-45.00273667 57.50860301 -52.63899707 58.42614097 -60.5 59.5 C-61.16579071 59.59058685 -61.83158142 59.68117371 -62.51754761 59.77450562 C-87.57818945 63.2099569 -123.55880553 68.57473104 -140.91796875 88.8203125 C-142.40259095 90.94946587 -142.40259095 90.94946587 -142.0625 94.75 C-134.30711675 98.14652633 -126.44346892 100.35796923 -118.25 102.4375 C-33.65304916 124.39903824 -33.65304916 124.39903824 -15.2421875 154.51171875 C-8.84494797 166.64952753 -9.24424898 179.60429634 -12.84375 192.5625 C-19.44902183 212.60608348 -35.2359804 226.62488915 -53.54296875 236.0234375 C-83.11482089 250.07118572 -117.56080908 255.20380585 -150.0625 255.75 C-151.03719238 255.77046387 -152.01188477 255.79092773 -153.01611328 255.81201172 C-212.43251276 256.91756059 -212.43251276 256.91756059 -229 241.3125 C-233.99605262 235.80977223 -235.70396998 231.16434105 -235.47265625 223.7421875 C-234.14736359 214.07386202 -228.55170536 205.60084022 -223.0625 197.75 C-222.65257812 197.15316406 -222.24265625 196.55632812 -221.8203125 195.94140625 C-216.72577076 189.1779629 -208.39848561 184.12418836 -200.0625 182.75 C-196.9576409 182.48218957 -193.86539545 182.36884522 -190.75 182.3125 C-189.96052979 182.29010254 -189.17105957 182.26770508 -188.35766602 182.24462891 C-184.62447189 182.25979638 -182.65660672 182.33495172 -179.53515625 184.515625 C-177.92063471 186.96524389 -177.61756067 188.05131498 -177.8125 190.9375 C-177.99005368 193.34202878 -177.99005368 193.34202878 -178.0625 195.75 C-151.25700357 196.37017858 -123.49707932 195.40209329 -97.0625 190.75 C-96.30855957 190.61899902 -95.55461914 190.48799805 -94.77783203 190.35302734 C-80.39241159 187.72623496 -65.31292482 182.67386264 -53.55859375 173.78125 C-52.0625 172.75 -52.0625 172.75 -50.0625 172.75 C-62.08299736 156.3147018 -81.98752524 151.71060912 -101.0625 148.75 C-102.42804506 148.55875177 -103.79393771 148.36996995 -105.16015625 148.18359375 C-125.32759947 145.3278409 -144.83940604 138.78734455 -163.0625 129.75 C-163.99191406 129.29882812 -164.92132813 128.84765625 -165.87890625 128.3828125 C-173.21483724 124.58451321 -180.41842073 119.60399521 -183.4375 111.625 C-187.6226562 92.37328149 -181.82722193 66.25355882 -171.5625 49.6875 C-170.41761633 48.02644014 -169.25370288 46.37816282 -168.0625 44.75 C-167.32 43.71875 -166.5775 42.6875 -165.8125 41.625 C-127.36523587 1.43013296 -52.20731679 -6.76670047 0 0 Z " fill="#020202" transform="translate(244.0625,56.25)"/>
<path d="M0 0 C4.4840374 3.90916081 5.97560926 9.28299579 7 15 C7.63286487 24.3912626 6.84989962 33.87633517 6.35864258 43.26367188 C5.98754301 50.51776908 5.89011947 57.7356762 6 65 C7.17755859 63.62328125 7.17755859 63.62328125 8.37890625 62.21875 C11.58203306 58.47581053 14.79011986 54.73714841 18 51 C18.63808594 50.25621094 19.27617188 49.51242188 19.93359375 48.74609375 C23.92722979 44.1349878 28.07977197 39.67689866 32.23510742 35.2121582 C36.0353967 31.10448824 39.69469531 26.89367809 43.3125 22.625 C56.17706577 7.48997369 56.17706577 7.48997369 62.62109375 6.6640625 C70.25351652 6.55820365 70.25351652 6.55820365 74.0625 8.8125 C77.76068283 12.98786771 78.56716643 15.461333 78.43359375 20.8828125 C77.04245698 30.88395791 72.01540528 40.36742566 67.4375 49.25 C66.89234741 50.32229858 66.89234741 50.32229858 66.33618164 51.41625977 C62.91269836 57.81315137 59.20231573 60.79104235 52.25 63.0625 C46.09959319 65.52115896 43.10922585 68.78974281 39.2109375 74.0390625 C36.96498478 77.04689317 34.55720903 79.75395092 32 82.5 C27.99330777 86.8575086 24.22263999 91.34620632 20.5078125 95.953125 C16.87471495 100.36716875 13.11149947 104.66542468 9.34057617 108.96191406 C8.8066626 109.57260742 8.27274902 110.18330078 7.72265625 110.8125 C7.00734741 111.62654297 7.00734741 111.62654297 6.27758789 112.45703125 C2.73272175 116.73823782 2.60664694 120.21556586 2.42163086 125.55126953 C2.38393082 126.4248259 2.34623077 127.29838226 2.30738831 128.19841003 C2.18454688 131.09292266 2.07479499 133.987784 1.96484375 136.8828125 C1.88131841 138.89724421 1.79687865 140.91163819 1.71156311 142.92599487 C1.48860075 148.23887212 1.2762904 153.55211949 1.06671143 158.86553955 C0.73041372 167.3489153 0.37839975 175.83164977 0.02572823 184.31435776 C-0.09560796 187.27041112 -0.21223797 190.22662104 -0.32814026 193.18289185 C-0.40233201 195.01271985 -0.47662198 196.84254387 -0.55102539 198.67236328 C-0.58169098 199.48620987 -0.61235657 200.30005646 -0.64395142 201.13856506 C-0.86516931 206.46391017 -1.36238434 211.7078869 -2 217 C6.82444272 213.67840137 14.5463892 209.44545598 22.4375 204.3125 C24.51719375 202.971628 26.59914285 201.63424602 28.68359375 200.30078125 C29.58650146 199.71466064 30.48940918 199.12854004 31.41967773 198.5246582 C35.91975242 195.86565864 39.7221904 194.23031943 45 195 C48.69936027 197.57346801 49.83056792 199.12203374 50.6875 203.5625 C49.49317922 220.28299089 32.06484695 235.05101941 20.17578125 245.4765625 C17.48948445 247.7068403 14.76466338 249.86782795 12 252 C11.09378906 252.7115625 10.18757812 253.423125 9.25390625 254.15625 C-0.68789722 261.71484101 -11.89553789 267.82280053 -24.75 266.8125 C-31.24745584 265.79620199 -35.56595289 263.16982642 -39.6796875 258.09765625 C-42.03465722 254.35618068 -43.04333911 250.28088542 -44 246 C-44.17196396 245.26344681 -44.34392792 244.52689362 -44.52110291 243.76802063 C-45.07435468 240.57023065 -45.16253513 237.52769213 -45.20532227 234.28198242 C-45.21522186 233.62776306 -45.22512146 232.9735437 -45.23532104 232.29949951 C-45.26673914 230.15152522 -45.29161492 228.00352887 -45.31640625 225.85546875 C-45.33699282 224.36045275 -45.35798973 222.86544235 -45.37937927 221.37043762 C-45.43442415 217.44634552 -45.48391053 213.52220242 -45.53222656 209.59802246 C-45.58257044 205.58939099 -45.63818907 201.58083306 -45.69335938 197.57226562 C-45.80072569 189.71490603 -45.90221793 181.85748469 -46 174 C-48.0728698 176.38302572 -50.1440014 178.76755608 -52.21484375 181.15234375 C-52.79665405 181.82116577 -53.37846436 182.48998779 -53.97790527 183.17907715 C-57.97226418 187.7812427 -61.85671517 192.4522184 -65.6875 197.19140625 C-67.91422395 199.89582267 -70.19250709 202.54513335 -72.49023438 205.18896484 C-78.48616732 212.09546028 -83.97477928 219.20532512 -89.19628906 226.72216797 C-100.83912357 243.422664 -118.50069309 265.10091531 -139.5390625 269.53515625 C-143.58603716 269.79908938 -146.20840904 269.24768241 -149.4375 266.75 C-154.75671366 261.04157558 -154.49535139 255.55315221 -154.3125 248.11328125 C-153.33586194 230.35881521 -138.56867604 214.27751189 -126 203 C-120.16553351 198.2159016 -114.19585818 194.07610382 -107.625 190.375 C-96.36507385 183.61094365 -88.19205927 172.69598413 -80.08203125 162.5546875 C-77.20869799 159.02905907 -74.1608524 155.67666759 -71.1015625 152.3125 C-68.01707415 148.91841617 -65.00763226 145.46214386 -62 142 C-60.92708665 140.76952836 -59.85416963 139.53905991 -58.78125 138.30859375 C-57.60403512 136.95584363 -56.42695311 135.60297788 -55.25 134.25 C-54.68249023 133.59942627 -54.11498047 132.94885254 -53.53027344 132.27856445 C-52.98918945 131.65554443 -52.44810547 131.03252441 -51.890625 130.390625 C-51.40625977 129.83407227 -50.92189453 129.27751953 -50.42285156 128.70410156 C-49.95331055 128.14174805 -49.48376953 127.57939453 -49 127 C-48.45593506 126.40993164 -47.91187012 125.81986328 -47.35131836 125.21191406 C-45.48263862 122.15315373 -45.56518323 119.79078784 -45.48828125 116.21875 C-45.47028473 115.54439407 -45.45228821 114.87003815 -45.43374634 114.17524719 C-45.37872632 111.95022298 -45.3451885 109.72545563 -45.3125 107.5 C-45.27955277 105.95139823 -45.24576741 104.40281409 -45.21118164 102.85424805 C-44.86221551 85.90581196 -44.90215718 68.95089255 -45 52 C-51.49425926 53.12921689 -57.50950294 54.66788064 -63.625 57.125 C-64.78322266 57.58459106 -64.78322266 57.58459106 -65.96484375 58.0534668 C-77.31819431 62.6489259 -88.03561133 68.4055452 -98.75 74.3125 C-99.8946875 74.94345581 -99.8946875 74.94345581 -101.0625 75.5871582 C-104.55067448 77.53631685 -107.88879442 79.47009862 -111 82 C-110.37351562 82.19335938 -109.74703125 82.38671875 -109.1015625 82.5859375 C-108.28429687 82.84632812 -107.46703125 83.10671875 -106.625 83.375 C-105.40683594 83.75785156 -105.40683594 83.75785156 -104.1640625 84.1484375 C-102 85 -102 85 -100 87 C-99.36484772 92.53489848 -99.36484772 92.53489848 -100 95 C-103.97391969 99.83153702 -108.00633162 101.52150902 -113.73828125 103.48046875 C-114.57787888 103.77939529 -115.4174765 104.07832184 -116.28251648 104.38630676 C-118.05278439 105.01377379 -119.82546213 105.63447847 -121.6003418 106.2487793 C-124.29794664 107.18246285 -126.98821469 108.13510228 -129.67773438 109.09179688 C-131.40585581 109.70163901 -133.1343597 110.31039867 -134.86328125 110.91796875 C-136.05743401 111.33830635 -136.05743401 111.33830635 -137.27571106 111.76713562 C-152.40802938 116.99566828 -152.40802938 116.99566828 -160 116 C-163.70336391 113.29963048 -164.72377528 111.73068233 -165.44140625 107.234375 C-166.26150692 85.75302846 -154.93972153 64.12686631 -141.25 48.3125 C-116.52257741 22.12391153 -36.98282979 -23.69090365 0 0 Z " fill="#020202" transform="translate(976,33)"/>
<path d="M0 0 C1.74023438 0.34804688 1.74023438 0.34804688 3.515625 0.703125 C7.02878118 1.84023352 9.07575947 3.2319195 11.75 5.75 C13.29586876 8.84173752 13.04359521 11.34429552 12.75 14.75 C11.15368865 17.31797913 9.81807105 18.40540452 6.93199664 19.33654875 C0.71171111 20.77069753 -5.28671318 21.10264937 -11.65596008 21.19789124 C-12.78041938 21.22200469 -13.90487867 21.24611814 -15.06341249 21.2709623 C-18.8355308 21.34958161 -22.60776105 21.41513348 -26.38012695 21.48071289 C-29.11036154 21.53378982 -31.84053912 21.5895866 -34.57072258 21.64522362 C-41.30094848 21.78067183 -48.03132678 21.90616247 -54.76180156 22.02854253 C-62.88658761 22.17670095 -71.0111624 22.33528759 -79.13575155 22.49381486 C-98.75786736 22.87606742 -118.38032687 23.23896038 -138.00286844 23.59857915 C-147.00116251 23.76356191 -155.99941902 23.9305504 -164.99767523 24.09758301 C-215.4043177 25.03286707 -265.81155707 25.93415253 -316.21893853 26.82859147 C-332.1841873 27.11188665 -348.14942499 27.39579969 -364.11465454 27.68017578 C-365.27871112 27.7009099 -366.44276771 27.72164402 -367.64209873 27.74300645 C-376.03133786 27.89244203 -384.42057629 28.0419167 -392.80981445 28.19140625 C-394.02136601 28.21299511 -395.23291756 28.23458396 -396.4811828 28.25682703 C-407.77582812 28.45809074 -419.07047338 28.65935857 -430.36511797 28.86066353 C-443.44650547 29.09380413 -456.52789519 29.32681996 -469.60928917 29.55959702 C-549.24979497 30.97679999 -628.88999731 32.41030036 -711.36295205 33.90440911 C-712.29898863 33.92136664 -713.23502521 33.93832417 -714.19942653 33.95579556 C-718.94631463 34.04179192 -723.69320269 34.12779061 -728.44009068 34.2137932 C-757.1197347 34.73338905 -785.79939888 35.25186098 -814.4790802 35.76939392 C-815.8990672 35.79501913 -815.8990672 35.79501913 -817.34774081 35.82116201 C-836.48147844 36.16645096 -855.61521822 36.51162032 -874.74896175 36.85658225 C-885.2568466 37.04603034 -895.76473047 37.23553215 -906.27261353 37.42507935 C-907.68840972 37.45061709 -907.68840972 37.45061709 -909.13280786 37.47667075 C-939.51325836 38.02469006 -969.89364834 38.5759859 -1000.27400888 39.12896792 C-1031.18595449 39.69160972 -1062.09796044 40.25081173 -1093.01004792 40.8056074 C-1097.33877626 40.88329897 -1101.66750389 40.96103017 -1105.99623108 41.03878593 C-1106.84580953 41.05404548 -1107.69538797 41.06930503 -1108.57071122 41.08502699 C-1121.97264745 41.32584428 -1135.37451558 41.57025573 -1148.77635845 41.8162085 C-1162.13655505 42.06132183 -1175.49681862 42.30248166 -1188.85715603 42.53979824 C-1196.00603033 42.66688509 -1203.15486678 42.79551778 -1210.3036207 42.92922008 C-1237.64970671 43.43963484 -1264.99492671 43.85210605 -1292.34593848 43.92415637 C-1294.97813743 43.93193162 -1297.61032923 43.94280619 -1300.24250176 43.95693332 C-1303.86348568 43.97474655 -1307.48423 43.97924758 -1311.10525227 43.97957611 C-1312.18057217 43.98679512 -1313.25589208 43.99401414 -1314.36379743 44.00145191 C-1315.3496829 43.99850339 -1316.33556837 43.99555487 -1317.35132915 43.99251699 C-1318.20593517 43.9940186 -1319.0605412 43.9955202 -1319.94104438 43.9970673 C-1322.48588925 43.72475893 -1324.08405239 43.09541737 -1326.25 41.75 C-1328.14572759 38.91840689 -1328.52309176 36.62139633 -1328.5 33.25 C-1328.50515625 32.4971875 -1328.5103125 31.744375 -1328.515625 30.96875 C-1328.18958189 28.24533107 -1327.95480041 26.93932263 -1326.25 24.75 C-1318.40202552 20.66590363 -1309.88988174 21.20075904 -1301.26147461 21.08105469 C-1299.52040062 21.04653166 -1297.77935047 21.01078866 -1296.03832436 20.97393036 C-1291.27218714 20.87678053 -1286.50589799 20.79765867 -1281.73938107 20.72176838 C-1276.58688645 20.63677179 -1271.43470319 20.53560714 -1266.28245544 20.43695068 C-1254.05506278 20.20656649 -1241.82727736 20.0036742 -1229.59933758 19.80481339 C-1225.2417905 19.73350021 -1220.88427651 19.66028636 -1216.52676338 19.58693242 C-1189.07603654 19.12488715 -1161.62477243 18.70174233 -1134.17323905 18.29077315 C-1105.53060539 17.86191543 -1076.88820875 17.41772724 -1048.24582174 16.97274578 C-1045.97064091 16.93740803 -1043.69545967 16.90209603 -1041.42027831 16.86679173 C-962.17504178 15.63702384 -882.93110001 14.33071345 -803.6875 13 C-802.3227718 12.97708823 -802.3227718 12.97708823 -800.93047333 12.9537136 C-694.36755315 11.16466159 -587.8056829 9.3167286 -395.14584148 5.88991324 C-384.23525627 5.69500624 -373.32466812 5.50026652 -362.41407394 5.30586243 C-330.31896895 4.73397802 -298.2238984 4.16021694 -266.12890625 3.58203125 C-265.04204732 3.56245493 -263.9551884 3.54287861 -262.83539435 3.52270907 C-195.8666744 2.31619643 -128.89952112 1.04371031 -61.9340257 -0.33059686 C-59.68148315 -0.37679227 -57.42893853 -0.42288492 -55.17639303 -0.46893644 C-54.09335035 -0.49108242 -54.09335035 -0.49108242 -52.98842801 -0.51367579 C-51.56243256 -0.54283425 -50.136437 -0.57198757 -48.71044134 -0.60113551 C-44.06214724 -0.69626344 -39.413886 -0.79290036 -34.76563072 -0.88990974 C-32.41035916 -0.93834564 -30.05508691 -0.98674807 -27.69981384 -1.03511047 C-26.65980636 -1.05718305 -25.61979887 -1.07925563 -24.54827601 -1.10199708 C-6.92902883 -1.46037827 -6.92902883 -1.46037827 0 0 Z " fill="#464646" transform="translate(1439.25,324.25)"/>
<path d="M0 0 C0.66 0.33 1.32 0.66 2 1 C1.01 1.33 0.02 1.66 -1 2 C-1.08107583 3.93681161 -1.13922475 5.8745934 -1.1875 7.8125 C-1.22230469 8.89144531 -1.25710937 9.97039062 -1.29296875 11.08203125 C-1.21862307 13.94094159 -1.21862307 13.94094159 0.125 15.84375 C2.79407624 17.48968035 5.07621005 17.52022635 8.1875 17.6875 C9.27417969 17.75324219 10.36085938 17.81898438 11.48046875 17.88671875 C12.72763672 17.94279297 12.72763672 17.94279297 14 18 C14 18.66 14 19.32 14 20 C12.08364783 20.05423638 10.16685075 20.09289963 8.25 20.125 C7.18265625 20.14820313 6.1153125 20.17140625 5.015625 20.1953125 C2.00266233 20.00017243 0.43632274 19.74493385 -2 18 C-3.89572759 15.16840689 -4.27309176 12.87139633 -4.25 9.5 C-4.25515625 8.7471875 -4.2603125 7.994375 -4.265625 7.21875 C-3.96775339 4.73064599 -3.32104804 3.12111938 -2 1 C-1.34 0.67 -0.68 0.34 0 0 Z " fill="#F9F9F9" transform="translate(115,348)"/>
<path d="M0 0 C0.33 0 0.66 0 1 0 C1.48951049 6.36363636 1.48951049 6.36363636 -0.875 9.4375 C-3 11 -3 11 -5 11 C-3.84826645 8.53199953 -2.95216435 6.95216435 -1 5 C-0.35232207 2.42938689 -0.35232207 2.42938689 0 0 Z " fill="#F6F6F6" transform="translate(1451,332)"/>
</svg>
